/* XPM */
static const char * icon_paint_xpm[] = {
"48 48 2 1",
" 	c None",
".	c #000000",
"                                                ",
"     ......................................     ",
"   ..                                      ..   ",
"  .                                          .  ",
"  .                                          .  ",
" .                                     .      . ",
" .                                     ..     . ",
" .                                    ...     . ",
" .                                    ...     . ",
" .                                   ....     . ",
" .                                  .....     . ",
" .                                 ......     . ",
" .               .....             .....      . ",
" .            ...........          .....      . ",
" .         .................       .....      . ",
" .        .....   .....   ...       ...       . ",
" .       .....     ...     ...    ..          . ",
" .      ......     ...     ....     ...       . ",
" .     .......     ...     ....   ..          . ",
" .     ........   .....   ......  .....       . ",
" .    ..........................  .....       . ",
" .    ...   ....................  ....        . ",
" .    ..     ...................  ....        . ",
" .    ..     ...................  ....        . ",
" .   ...     ...................  ...         . ",
" .   ....   ....................  ...         . ",
" .   ...........................  ...         . ",
" .   ...........................  ...         . ",
" .   ....   ...................  ...          . ",
" .    ..     ..................  ...          . ",
" .    ..     .................   ...          . ",
" .    ..     ........   .....    ...          . ",
" .    ...   .......              ...          . ",
" .     ............              ..           . ",
" .     ...........              ...           . ",
" .      ..........              ...           . ",
" .      ..........              ...           . ",
" .       .........              ..            . ",
" .        ........              ..            . ",
" .         ........             ..            . ",
" .          .......                           . ",
" .            .....                           . ",
" .                                            . ",
"  .                                          .  ",
"  .                                          .  ",
"   ..                                      ..   ",
"     ......................................     ",
"                                                "};
