/* XPM */
static const char * icon_pencil_rect_xpm[] = {
"48 48 2 1",
" 	c None",
".	c #000000",
"                                                ",
"     ......................................     ",
"   ..                                      ..   ",
"  .                                          .  ",
"  .                                          .  ",
" .                                            . ",
" .                                            . ",
" .          .............................     . ",
" .          .............................     . ",
" .          .............................     . ",
" .          .............................     . ",
" .          .............................     . ",
" .          .............................     . ",
" .          .............................     . ",
" .          .............................     . ",
" .          .............................     . ",
" .          .............................     . ",
" .          .............................     . ",
" .          .............................     . ",
" .          .............................     . ",
" .          .............................     . ",
" .          .............................     . ",
" .          .......    ..................     . ",
" .          ......  ..   ................     . ",
" .          .....  .. .. ................     . ",
" .          ....  .. ..  ................     . ",
" .          ...  .. .. . ................     . ",
" .          ..  .. .. .. ................     . ",
" .          .  .. .. ..  ................     . ",
" .            .. .. ..  .................     . ",
" .           .. .. ..  ..................     . ",
" .          .. .. ..  ...................     . ",
" .         .. .. ..  ....................     . ",
" .        .. .. ..  .....................     . ",
" .       .. .. ..  ......................     . ",
" .      .. .. ..  .......................     . ",
" .      . .. ..                               . ",
" .       .. ..                                . ",
" .         ..                                 . ",
" .     .   .                                  . ",
" .    ...                                     . ",
" .    ..                                      . ",
" .                                            . ",
"  .                                          .  ",
"  .                                          .  ",
"   ..                                      ..   ",
"     ......................................     ",
"                                                "};
